PathFileType	4	(X/Y/Z)	Patient4_TMGait_0pt4_01_left_21.trc.trc
DataRate	CameraRate	NumFrames	NumMarkers	Units	OrigDataRate	OrigDataStartFrame	OrigNumFrames
80.459770114943	80.459770114943	4	33	mm	80.459770114943	124	       141
Frame#	Time	Sacral			L.Shoulder			Chest			R.Shoulder			Neck			R.ASIS			L.ASIS			R.Thigh.Superior			R.Thigh.Lateral			R.Thigh.Inferior			R.Patella			L.Thigh.Superior			L.Thigh.Lateral			L.Thigh.Inferior			L.Patella			L.Shank.Superior			L.Shank.Lateral			L.Shank.Inferior			R.Shank.Superior			R.Shank.Lateral			R.Shank.Inferior			R.Heel			R.Midfoot.Superior			R.Midfoot.Lateral			R.Toe			L.Heel			L.Midfoot.Lateral			L.Midfoot.Superior			L.Toe			L.Elbow			L.Wrist			R.Elbow			R.Wrist			
		X1	Y1	Z1	X2	Y2	Z2	X3	Y3	Z3	X4	Y4	Z4	X5	Y5	Z5	X6	Y6	Z6	X7	Y7	Z7	X8	Y8	Z8	X9	Y9	Z9	X10	Y10	Z10	X11	Y11	Z11	X12	Y12	Z12	X13	Y13	Z13	X14	Y14	Z14	X15	Y15	Z15	X16	Y16	Z16	X17	Y17	Z17	X18	Y18	Z18	X19	Y19	Z19	X20	Y20	Z20	X21	Y21	Z21	X22	Y22	Z22	X23	Y23	Z23	X24	Y24	Z24	X25	Y25	Z25	X26	Y26	Z26	X27	Y27	Z27	X28	Y28	Z28	X29	Y29	Z29	X30	Y30	Z30	X31	Y31	Z31	X32	Y32	Z32	X33	Y33	Z33	

124	26.698714285714	671.228377465806	1005.179738040247	502.431908132033	827.340089035521	1443.461869795825	326.372260254537	951.054397152769	1367.580144077436	468.401395435937	890.689505099774	1434.373788664352	653.616598427735	832.608726160654	1494.250412028962	494.296133897130	907.988501173360	942.217136277682	601.363291277437	873.019895466027	964.985344738047	329.188709577032	914.061035342689	730.287660231786	573.485301543286	816.033816222451	632.517947066940	637.777123080329	879.083412010264	569.638116302243	557.567091219307	864.524319239064	486.307689473405	563.128033965800	944.797859257569	768.430015385926	350.226845773004	879.686809671641	642.525014380506	279.366772416230	984.392218770784	579.417552204241	330.905590005496	999.922105055292	508.525062474783	330.252718594545	975.654116582015	434.811857274736	320.419094751139	890.028356506391	315.775993822666	272.097990367287	962.921108902436	205.175218852982	325.137177916438	831.043497491617	399.952970815805	570.173712954196	753.505268879379	301.031415083562	633.375422740115	788.978761749944	204.121833544613	568.060234475150	647.422853792619	41.935767833905	536.284127056494	819.490428241016	96.907221706944	572.371361353088	730.813706879472	36.209927321181	610.601152380660	938.993745358539	43.794728506652	599.133045702796	855.585222345957	39.468718338370	364.170158096313	926.410628441472	38.700371819121	281.093193964951	1007.254969154263	105.506968906861	302.782748330461	1135.860450250712	60.591093343213	269.508973695265	821.825101331100	1217.585127258894	65.107060240638	967.327999181003	1063.922953994666	-91.367700512561	1024.407733061444	1116.220921531219	759.888108566899	1268.515839143130	1051.837523506443	704.906853465404	
125	26.711142857143	672.165389252582	1004.319284861559	499.501913725182	826.742608493867	1442.921430716225	322.914229569625	950.155446255624	1367.822402606608	465.621098671576	888.735766620205	1434.656470905183	650.518258554326	831.285713161574	1494.037578430283	490.566127772712	908.989708203878	941.932534066680	599.049920696392	874.448619432104	964.265330822489	326.971124754286	915.333536763479	729.709092661114	571.499952669208	816.785402305452	632.122444377871	635.695148531385	879.476825504309	568.846265794990	555.640502890947	864.286434618402	485.168704605232	561.123067697146	943.942791518169	764.982344359633	348.483286988360	876.594565737294	640.474442251788	278.286302070568	980.275323379722	576.230966427770	330.990171641725	994.961224548791	505.469519793176	330.394590876256	970.515971945311	432.115604238172	320.277110175554	884.511406734972	313.159506679811	272.612639735028	957.022467167211	202.557026112748	325.903103816001	829.911965577556	399.141934703826	568.583711822521	751.386625645566	301.275381894738	632.294607894680	785.518837863442	203.729184400134	567.301889649586	642.510905873802	42.166417264562	536.345493498268	814.641442641813	96.767743744983	572.131045235093	725.909058549357	36.237181049331	610.554270518939	934.120929774210	43.364060345848	599.153715681188	848.667425617783	38.420921656269	365.694062168246	919.131501617175	37.001687713608	282.229216016506	1000.953837866852	102.402901803909	303.978141817213	1129.058110336791	55.728651562799	270.175343426314	820.448964253528	1215.628991279901	62.649176516862	966.450914224777	1061.785376069857	-93.245294142559	1020.472691288661	1115.660642220607	758.206869392450	1264.495056434657	1050.516492662057	704.116707528563	
126	26.723571428571	673.074185401596	1003.666929559946	496.594012798194	826.300136646665	1442.524858483145	319.393540208366	949.418102633538	1368.174235681600	462.750550515110	887.023863656278	1435.126525425811	647.323430046371	830.167124203074	1493.995825785173	486.728688825018	909.986271598822	941.715148764579	596.507388754870	875.680293649812	963.838944387320	324.569377926931	916.666391376880	729.249011988433	569.264103202756	817.702491716920	631.805743535562	633.457962327466	880.059787131637	568.137640506495	553.563500030890	864.298659222536	484.052105477135	559.029877347230	943.000280857312	762.115040886072	346.519672984009	873.914500609588	638.974016427327	276.816345403551	976.540455276180	573.748767142420	330.824357577109	990.467466167828	503.096871261349	330.233425810273	965.964483809002	430.028946767202	319.838388827180	879.804061739384	311.108005566813	272.587056446755	951.824276792850	200.532614007987	326.269810587181	828.939829748237	398.406914844374	566.930935678778	749.357994198587	301.670800100931	631.143753765546	782.153716076335	203.449217730310	566.553206906883	637.630246359522	42.556706398989	536.421494409495	809.873830739465	96.666161784135	571.917859359401	721.050022468606	36.317437504062	610.499061100852	929.299620417396	42.848837052198	599.188544144806	842.554641721349	37.720691931786	366.725434929596	912.727761747058	35.819796761763	282.948145309951	995.353839972160	100.016868339183	304.806728791114	1123.052264912783	51.865100148030	270.597926697563	818.977303498807	1213.517425290690	60.326223409206	965.559488293427	1059.358182886122	-94.816605053524	1015.940217705720	1114.944173277779	756.537770580979	1259.781120365534	1048.289517693554	703.632952392772	
127	26.736000000000	673.909997935825	1003.266015773035	493.722008270993	825.985142637358	1442.308161525436	315.863059042744	948.845014853377	1368.629959653167	459.795201008501	885.632605023803	1435.783432112633	644.057068346437	829.270848922669	1494.139402908291	482.841075940557	910.919347716002	941.598186510127	593.714451647167	876.643408639386	963.740493112715	321.936355576147	917.935727133329	728.945753241511	566.774204309090	818.694445209467	631.608279116584	631.091220319616	880.774234725163	567.556283819114	551.369861744065	864.552983490187	482.983361788950	556.928584425765	942.126047848021	760.056474544598	344.289454174465	871.828847542728	638.088080458681	274.983009250179	973.394249763081	572.033185435141	330.260257715736	986.590091468426	501.417515736252	329.692695134551	962.108683240096	428.541129033359	319.101788262109	875.925928296028	309.659641213554	272.018522409203	947.267169379565	199.093043433266	326.267097167857	828.105244696359	397.777792376357	565.272283682874	747.381836496829	302.247629236856	629.951709895501	778.880052890014	203.316421438923	565.849019181795	632.784062719314	43.158975469988	536.512416773940	805.200625405632	96.620088251584	571.750655444585	716.238295327715	36.477167037238	610.441879410883	924.529066863586	42.261167045857	599.238603427146	837.115076593395	37.345037519598	367.310877929932	907.075635660112	35.106113723823	283.305810800589	990.327018346207	98.340703463649	305.290270225993	1117.718272375319	49.002117047032	270.807372245799	817.372192966410	1211.261309914863	58.197810377999	964.636616230797	1056.623840980229	-95.965230943903	1010.813646311582	1114.090870201952	754.883755126009	1254.340765896031	1045.131432407820	703.426957964621	
